<mxfile host="Electron" agent="Mozilla/5.0 (Windows NT 10.0; Win64; x64) AppleWebKit/537.36 (KHTML, like Gecko) draw.io/24.7.8 Chrome/128.0.6613.36 Electron/32.0.1 Safari/537.36" version="24.7.8">
  <diagram id="C5RBs43oDa-KdzZeNtuy" name="Page-1">
    <mxGraphModel dx="917" dy="825" grid="0" gridSize="10" guides="1" tooltips="1" connect="1" arrows="1" fold="1" page="1" pageScale="1" pageWidth="827" pageHeight="1169" math="0" shadow="0">
      <root>
        <mxCell id="WIyWlLk6GJQsqaUBKTNV-0" />
        <mxCell id="WIyWlLk6GJQsqaUBKTNV-1" parent="WIyWlLk6GJQsqaUBKTNV-0" />
        <mxCell id="sKiI-H81xx_cEQ90ABMz-0" value="" style="shape=waypoint;sketch=0;fillStyle=solid;size=6;pointerEvents=1;points=[];fillColor=none;resizable=0;rotatable=0;perimeter=centerPerimeter;snapToPoint=1;" vertex="1" parent="WIyWlLk6GJQsqaUBKTNV-1">
          <mxGeometry x="789" y="149" width="20" height="20" as="geometry" />
        </mxCell>
        <mxCell id="sKiI-H81xx_cEQ90ABMz-8" value="" style="edgeStyle=orthogonalEdgeStyle;rounded=0;orthogonalLoop=1;jettySize=auto;html=1;" edge="1" parent="WIyWlLk6GJQsqaUBKTNV-1" source="sKiI-H81xx_cEQ90ABMz-1" target="sKiI-H81xx_cEQ90ABMz-6">
          <mxGeometry relative="1" as="geometry" />
        </mxCell>
        <mxCell id="sKiI-H81xx_cEQ90ABMz-1" value="INPUT" style="strokeWidth=2;html=1;shape=mxgraph.flowchart.start_2;whiteSpace=wrap;fontStyle=1" vertex="1" parent="WIyWlLk6GJQsqaUBKTNV-1">
          <mxGeometry x="19" y="119" width="80" height="80" as="geometry" />
        </mxCell>
        <mxCell id="sKiI-H81xx_cEQ90ABMz-10" value="" style="edgeStyle=orthogonalEdgeStyle;rounded=0;orthogonalLoop=1;jettySize=auto;html=1;" edge="1" parent="WIyWlLk6GJQsqaUBKTNV-1" source="sKiI-H81xx_cEQ90ABMz-2" target="sKiI-H81xx_cEQ90ABMz-7">
          <mxGeometry relative="1" as="geometry" />
        </mxCell>
        <mxCell id="sKiI-H81xx_cEQ90ABMz-2" value="&lt;b&gt;binarização&lt;/b&gt;" style="rounded=1;whiteSpace=wrap;html=1;absoluteArcSize=1;arcSize=14;strokeWidth=2;" vertex="1" parent="WIyWlLk6GJQsqaUBKTNV-1">
          <mxGeometry x="239" y="129" width="80" height="60" as="geometry" />
        </mxCell>
        <mxCell id="sKiI-H81xx_cEQ90ABMz-12" value="" style="edgeStyle=orthogonalEdgeStyle;rounded=0;orthogonalLoop=1;jettySize=auto;html=1;" edge="1" parent="WIyWlLk6GJQsqaUBKTNV-1" source="sKiI-H81xx_cEQ90ABMz-3" target="sKiI-H81xx_cEQ90ABMz-5">
          <mxGeometry relative="1" as="geometry" />
        </mxCell>
        <mxCell id="sKiI-H81xx_cEQ90ABMz-3" value="&lt;b&gt;Tesseract&lt;/b&gt;" style="rounded=1;whiteSpace=wrap;html=1;absoluteArcSize=1;arcSize=14;strokeWidth=2;" vertex="1" parent="WIyWlLk6GJQsqaUBKTNV-1">
          <mxGeometry x="449" y="129" width="80" height="60" as="geometry" />
        </mxCell>
        <mxCell id="sKiI-H81xx_cEQ90ABMz-14" value="" style="edgeStyle=orthogonalEdgeStyle;rounded=0;orthogonalLoop=1;jettySize=auto;html=1;" edge="1" parent="WIyWlLk6GJQsqaUBKTNV-1" source="sKiI-H81xx_cEQ90ABMz-4" target="sKiI-H81xx_cEQ90ABMz-0">
          <mxGeometry relative="1" as="geometry" />
        </mxCell>
        <mxCell id="sKiI-H81xx_cEQ90ABMz-4" value="&lt;b&gt;Correção ortográfica&lt;/b&gt;" style="rounded=1;whiteSpace=wrap;html=1;absoluteArcSize=1;arcSize=14;strokeWidth=2;" vertex="1" parent="WIyWlLk6GJQsqaUBKTNV-1">
          <mxGeometry x="679" y="129" width="80" height="60" as="geometry" />
        </mxCell>
        <mxCell id="sKiI-H81xx_cEQ90ABMz-13" value="" style="edgeStyle=orthogonalEdgeStyle;rounded=0;orthogonalLoop=1;jettySize=auto;html=1;" edge="1" parent="WIyWlLk6GJQsqaUBKTNV-1" source="sKiI-H81xx_cEQ90ABMz-5" target="sKiI-H81xx_cEQ90ABMz-4">
          <mxGeometry relative="1" as="geometry" />
        </mxCell>
        <mxCell id="sKiI-H81xx_cEQ90ABMz-5" value="&lt;b&gt;Limpeza de hifenizações&lt;/b&gt;" style="rounded=1;whiteSpace=wrap;html=1;absoluteArcSize=1;arcSize=14;strokeWidth=2;" vertex="1" parent="WIyWlLk6GJQsqaUBKTNV-1">
          <mxGeometry x="559" y="129" width="80" height="60" as="geometry" />
        </mxCell>
        <mxCell id="sKiI-H81xx_cEQ90ABMz-9" value="" style="edgeStyle=orthogonalEdgeStyle;rounded=0;orthogonalLoop=1;jettySize=auto;html=1;" edge="1" parent="WIyWlLk6GJQsqaUBKTNV-1" source="sKiI-H81xx_cEQ90ABMz-6" target="sKiI-H81xx_cEQ90ABMz-2">
          <mxGeometry relative="1" as="geometry" />
        </mxCell>
        <mxCell id="sKiI-H81xx_cEQ90ABMz-6" value="&lt;b&gt;Correção de distorções&lt;/b&gt;" style="rounded=1;whiteSpace=wrap;html=1;absoluteArcSize=1;arcSize=14;strokeWidth=2;" vertex="1" parent="WIyWlLk6GJQsqaUBKTNV-1">
          <mxGeometry x="129" y="129" width="80" height="60" as="geometry" />
        </mxCell>
        <mxCell id="sKiI-H81xx_cEQ90ABMz-11" value="" style="edgeStyle=orthogonalEdgeStyle;rounded=0;orthogonalLoop=1;jettySize=auto;html=1;" edge="1" parent="WIyWlLk6GJQsqaUBKTNV-1" source="sKiI-H81xx_cEQ90ABMz-7" target="sKiI-H81xx_cEQ90ABMz-3">
          <mxGeometry relative="1" as="geometry" />
        </mxCell>
        <mxCell id="sKiI-H81xx_cEQ90ABMz-7" value="&lt;b&gt;Segmentação&lt;/b&gt;" style="rounded=1;whiteSpace=wrap;html=1;absoluteArcSize=1;arcSize=14;strokeWidth=2;" vertex="1" parent="WIyWlLk6GJQsqaUBKTNV-1">
          <mxGeometry x="349" y="129" width="80" height="60" as="geometry" />
        </mxCell>
        <mxCell id="sKiI-H81xx_cEQ90ABMz-15" value="" style="strokeWidth=2;html=1;shape=mxgraph.flowchart.annotation_1;align=right;pointerEvents=1;rotation=-90;textDirection=vertical-lr;labelPosition=left;verticalLabelPosition=middle;verticalAlign=top;" vertex="1" parent="WIyWlLk6GJQsqaUBKTNV-1">
          <mxGeometry x="266.5" y="49" width="25" height="310" as="geometry" />
        </mxCell>
        <mxCell id="sKiI-H81xx_cEQ90ABMz-16" value="" style="strokeWidth=2;html=1;shape=mxgraph.flowchart.annotation_1;align=right;pointerEvents=1;rotation=-90;textDirection=vertical-lr;labelPosition=left;verticalLabelPosition=middle;verticalAlign=top;" vertex="1" parent="WIyWlLk6GJQsqaUBKTNV-1">
          <mxGeometry x="649" y="89" width="25" height="230" as="geometry" />
        </mxCell>
        <mxCell id="sKiI-H81xx_cEQ90ABMz-17" value="" style="strokeWidth=2;html=1;shape=mxgraph.flowchart.annotation_1;align=right;pointerEvents=1;rotation=-90;textDirection=vertical-lr;labelPosition=left;verticalLabelPosition=middle;verticalAlign=top;" vertex="1" parent="WIyWlLk6GJQsqaUBKTNV-1">
          <mxGeometry x="477.13" y="158.38" width="25" height="91.25" as="geometry" />
        </mxCell>
        <mxCell id="sKiI-H81xx_cEQ90ABMz-18" value="&lt;b style=&quot;font-size: 18px;&quot;&gt;Pré-OCR&lt;/b&gt;" style="text;html=1;align=center;verticalAlign=middle;resizable=0;points=[];autosize=1;strokeColor=none;fillColor=none;fontSize=18;" vertex="1" parent="WIyWlLk6GJQsqaUBKTNV-1">
          <mxGeometry x="229" y="222" width="100" height="40" as="geometry" />
        </mxCell>
        <mxCell id="sKiI-H81xx_cEQ90ABMz-19" value="&lt;b style=&quot;font-size: 18px;&quot;&gt;OCR&lt;/b&gt;" style="text;html=1;align=center;verticalAlign=middle;resizable=0;points=[];autosize=1;strokeColor=none;fillColor=none;fontSize=18;" vertex="1" parent="WIyWlLk6GJQsqaUBKTNV-1">
          <mxGeometry x="459" y="222" width="60" height="40" as="geometry" />
        </mxCell>
        <mxCell id="sKiI-H81xx_cEQ90ABMz-20" value="&lt;b style=&quot;font-size: 18px;&quot;&gt;Pós-OCR&lt;/b&gt;" style="text;html=1;align=center;verticalAlign=middle;resizable=0;points=[];autosize=1;strokeColor=none;fillColor=none;fontSize=18;" vertex="1" parent="WIyWlLk6GJQsqaUBKTNV-1">
          <mxGeometry x="619" y="222" width="100" height="40" as="geometry" />
        </mxCell>
      </root>
    </mxGraphModel>
  </diagram>
</mxfile>
